<svg width="1440" height="912" viewBox="0 0 1440 912" fill="none" xmlns="http://www.w3.org/2000/svg">
<path d="M-1184.51 37.1086H2524.04" stroke="#F4F4F4"/>
<path d="M-1184.51 77.916H2524.04" stroke="#F4F4F4"/>
<path d="M-1184.51 118.724H2524.04" stroke="#F4F4F4"/>
<path d="M-1184.51 159.531H2524.04" stroke="#F4F4F4"/>
<path d="M-1184.51 200.339H2524.04" stroke="#F4F4F4"/>
<path d="M-1184.51 241.146H2524.04" stroke="#F4F4F4"/>
<path d="M-1184.51 281.954H2524.04" stroke="#F4F4F4"/>
<path d="M-1184.51 322.761H2524.04" stroke="#F4F4F4"/>
<path d="M-1184.51 363.569H2524.04" stroke="#F4F4F4"/>
<path d="M-1184.51 404.376H2524.04" stroke="#F4F4F4"/>
<path d="M-1184.51 445.184H2524.04" stroke="#F4F4F4"/>
<path d="M-1184.51 485.991H2524.04" stroke="#F4F4F4"/>
<path d="M-1184.51 526.799H2524.04" stroke="#F4F4F4"/>
<path d="M-1184.51 567.606H2524.04" stroke="#F4F4F4"/>
<path d="M-1184.51 608.414H2524.04" stroke="#F4F4F4"/>
<path d="M-1184.51 649.221H2524.04" stroke="#F4F4F4"/>
<path d="M-1184.51 690.029H2524.04" stroke="#F4F4F4"/>
<path d="M-1184.51 730.836H2524.04" stroke="#F4F4F4"/>
<path d="M-1184.51 771.644H2524.04" stroke="#F4F4F4"/>
<path d="M-1184.51 812.451H2524.04" stroke="#F4F4F4"/>
<path d="M-1184.51 853.259H2524.04" stroke="#F4F4F4"/>
<path d="M1404.3 -2796.54L1404.3 912" stroke="#F4F4F4"/>
<path d="M1363.49 -2796.54L1363.49 912" stroke="#F4F4F4"/>
<path d="M1322.69 -2796.54L1322.69 912" stroke="#F4F4F4"/>
<path d="M1281.88 -2796.54L1281.88 912" stroke="#F4F4F4"/>
<path d="M1241.07 -2796.54L1241.07 912" stroke="#F4F4F4"/>
<path d="M1200.26 -2796.54L1200.26 912" stroke="#F4F4F4"/>
<path d="M1159.46 -2796.54L1159.46 912" stroke="#F4F4F4"/>
<path d="M1118.65 -2796.54L1118.65 912" stroke="#F4F4F4"/>
<path d="M1077.84 -2796.54L1077.84 912" stroke="#F4F4F4"/>
<path d="M1037.03 -2796.54L1037.03 912" stroke="#F4F4F4"/>
<path d="M996.226 -2796.54L996.226 912" stroke="#F4F4F4"/>
<path d="M955.418 -2796.54L955.418 912" stroke="#F4F4F4"/>
<path d="M914.611 -2796.54L914.611 912" stroke="#F4F4F4"/>
<path d="M873.803 -2796.54L873.803 912" stroke="#F4F4F4"/>
<path d="M832.996 -2796.54L832.995 912" stroke="#F4F4F4"/>
<path d="M792.188 -2796.54L792.188 912" stroke="#F4F4F4"/>
<path d="M751.381 -2796.54L751.381 912" stroke="#F4F4F4"/>
<path d="M710.573 -2796.54L710.573 912" stroke="#F4F4F4"/>
<path d="M669.766 -2796.54L669.765 912" stroke="#F4F4F4"/>
<path d="M628.958 -2796.54L628.958 912" stroke="#F4F4F4"/>
<path d="M588.151 -2796.54L588.151 912" stroke="#F4F4F4"/>
<path d="M547.343 -2796.54L547.343 912" stroke="#F4F4F4"/>
<path d="M506.536 -2796.54L506.535 912" stroke="#F4F4F4"/>
<path d="M465.729 -2796.54L465.728 912" stroke="#F4F4F4"/>
<path d="M424.921 -2796.54L424.921 912" stroke="#F4F4F4"/>
<path d="M384.113 -2796.54L384.113 912" stroke="#F4F4F4"/>
<path d="M343.306 -2796.54L343.306 912" stroke="#F4F4F4"/>
<path d="M302.498 -2796.54L302.498 912" stroke="#F4F4F4"/>
<path d="M261.691 -2796.54L261.691 912" stroke="#F4F4F4"/>
<path d="M220.883 -2796.54L220.883 912" stroke="#F4F4F4"/>
<path d="M180.076 -2796.54L180.076 912" stroke="#F4F4F4"/>
<path d="M139.268 -2796.54L139.268 912" stroke="#F4F4F4"/>
<path d="M98.4609 -2796.54L98.4608 912" stroke="#F4F4F4"/>
<path d="M57.6533 -2796.54L57.6532 912" stroke="#F4F4F4"/>
<path d="M16.8457 -2796.54L16.8455 912" stroke="#F4F4F4"/>
</svg>
