<svg width="32" height="33" viewBox="0 0 32 33" fill="none" xmlns="http://www.w3.org/2000/svg">
<path d="M31.4351 18.5187C31.5167 20.3943 31.2622 22.1137 30.5136 23.8331C29.765 25.5524 28.6734 26.9592 27.2524 28.3659C25.8247 29.6164 24.2254 30.7105 22.2764 31.3357C21.4665 31.6484 20.492 31.961 19.5107 32.1173L19.998 31.961C19.998 31.961 23.5327 29.929 24.1656 25.5524C24.3249 21.6448 20.7916 19.9254 20.7916 19.9254C20.7916 19.9254 19.0753 22.1137 16.6049 22.1137C12.6524 22.1137 13.039 15.8615 13.039 15.8615C13.039 15.8615 7.23951 18.8313 7.51171 25.0835C7.68181 28.9912 12.0929 31.961 12.0929 31.961C11.5921 31.8047 10.9265 31.6484 10.4256 31.4921C8.42221 30.8668 6.72761 29.7727 5.19101 28.5222C3.65441 27.2718 2.4335 25.7087 1.53531 23.9894C0.637005 22.27 0.232806 20.5506 0.151106 18.675C-0.114194 12.579 7.20291 6.63941 7.20291 6.63941C7.20291 6.63941 8.06571 11.3286 11.8536 11.3286C18.7705 11.3286 15.8443 0.856104 15.8443 0.856104C15.8443 0.856104 22.2521 4.29481 24.4719 13.6732C27.91 13.2043 27.3969 8.984 27.3969 8.984C27.3969 8.984 31.2174 13.5169 31.4351 18.5187Z" fill="white"/>
</svg>
