<?xml version="1.0" encoding="utf-8"?><svg xmlns="http://www.w3.org/2000/svg" xmlns:xlink="http://www.w3.org/1999/xlink"><symbol viewBox="0 0 30 31" id="arrow" xmlns="http://www.w3.org/2000/svg"><rect x=".01" y=".057" width="30" height="30" rx="15"/><path d="M19.011 14.155l-3.853 3.083M15.158 17.25l-3.81-2.967" stroke="#221022" stroke-width="1.46" stroke-linecap="round"/></symbol><symbol viewBox="0 0 32 31" id="arrow-active" xmlns="http://www.w3.org/2000/svg"><rect width="30" height="30" rx="15" transform="matrix(1 0 0 -1 .432 30.86)"/><path d="M20.254 17.34l-4.056-3.043M16.198 14.286l-4.01 2.927" stroke="#fff" stroke-width="1.46" stroke-linecap="round"/></symbol><symbol viewBox="0 0 14 9" id="arrow_up" xmlns="http://www.w3.org/2000/svg"><path d="M12.895 7.705L7 1.81 1.105 7.705" stroke="#FF005C" stroke-width="2" stroke-linecap="round"/></symbol><symbol viewBox="0 0 96 88" id="benefits-icon1" xmlns="http://www.w3.org/2000/svg"><path d="M24.836 83.499a10.146 10.146 0 002.42-3.294 9.36 9.36 0 00.85-3.885 9.36 9.36 0 00-.85-3.885 10.147 10.147 0 00-2.419-3.293 11.296 11.296 0 00-3.62-2.201 12.133 12.133 0 00-4.273-.773c-1.465 0-2.917.262-4.271.772a11.296 11.296 0 00-3.622 2.2c-3.105 2.823-4.333 7.2-4.718 11.164a32.333 32.333 0 00.043 6.738c.067.562.66.689.763.705h.03c.249 0 3.816.073 4.915-3.093.197-.59.487-1.151.86-1.666.155-.203.381-.353.641-.425.26-.072.54-.062.792.029.253.09.465.256.602.47.136.213.19.462.15.707a4.973 4.973 0 00.78 3.467c.074.116.185.21.318.267a.806.806 0 00.43.058c3.736-.52 7.563-1.683 10.18-4.062zM95.727 12.029c-.27-4.247-3.615-7.29-8.285-7.535-15.86-.86-33.535 5.258-47.32 17.794l-3.676 3.343a67.405 67.405 0 00-3.776 3.708H21.08c-2.461.086-4.637 1.377-5.869 3.272L8.398 45.006c-.182.444-.31.906-.38 1.377.011.797.365 1.559.986 2.122.62.563 1.46.883 2.336.89h8.605c-1.117 3.419-.372 6.783 2.017 8.953l14.549 13.231c2.387 2.173 6.085 2.85 9.843 1.835v7.834c.01.796.363 1.556.982 2.12a3.527 3.527 0 002.33.892 7.656 7.656 0 001.515-.345L64.81 77.72c2.083-1.12 3.502-3.093 3.597-5.337v-10.54a72.187 72.187 0 004.077-3.434l3.676-3.343c13.786-12.537 20.512-28.612 19.567-43.036zM76.416 37.145c-1.64 1.493-3.731 2.509-6.007 2.92a12.82 12.82 0 01-6.778-.606c-2.144-.808-3.976-2.176-5.265-3.93-1.29-1.755-1.977-3.818-1.977-5.928s.688-4.173 1.977-5.927c1.289-1.755 3.121-3.123 5.265-3.93a12.818 12.818 0 016.778-.607c2.276.412 4.366 1.428 6.007 2.92 2.2 2 3.436 4.715 3.436 7.544 0 2.83-1.236 5.544-3.436 7.544zM18.341 21.053c-.639-.582-.998-1.371-.998-2.194 0-.822.359-1.611.998-2.193l8.834-8.034c.641-.583 1.51-.91 2.417-.91.906 0 1.775.327 2.416.91.64.582 1 1.373 1 2.197 0 .824-.36 1.615-1 2.197l-8.834 8.035a3.452 3.452 0 01-1.11.673 3.709 3.709 0 01-2.616-.004 3.449 3.449 0 01-1.107-.677zM5.536 19.212c-.637-.582-.995-1.37-.995-2.19 0-.821.358-1.609.995-2.19l4.53-4.127a3.6 3.6 0 012.398-.867 3.588 3.588 0 012.38.909c.631.574.99 1.351.999 2.164.008.813-.334 1.596-.954 2.181l-4.53 4.12c-.316.289-.691.518-1.105.675a3.695 3.695 0 01-2.612 0 3.438 3.438 0 01-1.106-.675zM77.232 74.61a3.09 3.09 0 01-.742-1.006 2.851 2.851 0 01-.261-1.187c0-.408.089-.812.26-1.188a3.09 3.09 0 01.743-1.006l8.832-8.026a3.593 3.593 0 012.413-.911c.906 0 1.774.325 2.415.907.64.582 1.001 1.371 1.002 2.195.001.823-.358 1.613-.997 2.196l-8.833 8.034a3.453 3.453 0 01-1.11.673 3.705 3.705 0 01-2.616-.004 3.449 3.449 0 01-1.106-.677zM79.255 86.256c-.64-.582-.999-1.37-.999-2.193s.36-1.612.999-2.194l4.53-4.12a3.454 3.454 0 011.106-.673 3.713 3.713 0 012.613-.002c.414.155.79.384 1.108.672.318.288.57.63.741 1.006.172.377.26.78.261 1.188 0 .408-.087.812-.258 1.189a3.1 3.1 0 01-.74 1.007l-4.53 4.12c-.316.29-.692.52-1.107.676a3.706 3.706 0 01-2.616 0 3.448 3.448 0 01-1.108-.676z"/><path d="M20.658 79.176a10.145 10.145 0 002.42-3.293 9.36 9.36 0 00.85-3.885 9.362 9.362 0 00-.85-3.885 10.145 10.145 0 00-2.419-3.294 11.297 11.297 0 00-3.621-2.2 12.132 12.132 0 00-4.272-.773c-1.466 0-2.917.262-4.272.772a11.294 11.294 0 00-3.621 2.2C1.768 67.641.54 72.019.155 75.981a32.334 32.334 0 00.043 6.739c.066.561.66.688.763.705h.03c.249 0 3.816.073 4.915-3.093.197-.59.487-1.152.86-1.667.155-.203.381-.353.641-.424.26-.072.54-.062.792.028.253.09.465.256.601.47.137.213.19.463.152.707a4.972 4.972 0 00.778 3.468c.075.115.186.209.32.267a.805.805 0 00.428.058c3.737-.52 7.564-1.683 10.18-4.063zM91.549 7.706C91.279 3.46 87.934.417 83.264.172c-15.86-.86-33.535 5.257-47.32 17.794l-3.676 3.343a67.406 67.406 0 00-3.776 3.708h-11.59c-2.461.086-4.637 1.377-5.869 3.271L4.22 40.683a5.96 5.96 0 00-.38 1.377c.011.798.365 1.56.986 2.123.62.563 1.46.882 2.336.89h8.605c-1.117 3.418-.372 6.783 2.017 8.952l14.549 13.232c2.387 2.173 6.085 2.85 9.843 1.834v7.834c.01.796.363 1.557.982 2.12a3.528 3.528 0 002.33.893 7.653 7.653 0 001.515-.345l13.629-6.197c2.083-1.12 3.502-3.092 3.597-5.337V57.52a72.231 72.231 0 004.077-3.434l3.676-3.344C85.768 38.206 92.494 22.131 91.55 7.706zM72.238 32.823c-1.64 1.492-3.731 2.508-6.007 2.92a12.82 12.82 0 01-6.778-.607c-2.144-.807-3.976-2.175-5.265-3.93-1.29-1.754-1.977-3.817-1.977-5.927 0-2.11.688-4.173 1.977-5.928 1.289-1.755 3.121-3.122 5.265-3.93a12.82 12.82 0 016.778-.607c2.276.412 4.366 1.428 6.007 2.92 2.2 2.001 3.436 4.715 3.436 7.545s-1.236 5.543-3.436 7.544zM14.163 16.73c-.64-.582-.998-1.37-.998-2.193s.359-1.612.998-2.193l8.834-8.035c.641-.582 1.51-.91 2.416-.91.907 0 1.776.328 2.417.91.64.583 1 1.374 1 2.198 0 .824-.36 1.614-1 2.197l-8.834 8.034a3.452 3.452 0 01-1.11.674 3.709 3.709 0 01-2.616-.005 3.45 3.45 0 01-1.107-.677zM1.358 14.89c-.637-.582-.995-1.37-.995-2.19 0-.822.358-1.61.995-2.19l4.53-4.127a3.6 3.6 0 012.398-.867 3.588 3.588 0 012.38.909c.631.574.99 1.351.998 2.164.009.812-.333 1.595-.953 2.18l-4.53 4.12a3.44 3.44 0 01-1.105.676 3.698 3.698 0 01-2.612 0 3.44 3.44 0 01-1.106-.676zM73.054 70.288a3.095 3.095 0 01-.743-1.006 2.853 2.853 0 01-.26-1.188c0-.407.088-.811.26-1.188.173-.376.425-.718.743-1.005l8.832-8.026a3.593 3.593 0 012.413-.912c.905 0 1.774.326 2.415.908.64.581 1.001 1.37 1.002 2.194 0 .824-.358 1.614-.998 2.196l-8.832 8.035a3.452 3.452 0 01-1.11.673 3.709 3.709 0 01-2.615-.004 3.448 3.448 0 01-1.107-.677zM75.076 81.934c-.64-.582-.998-1.371-.998-2.194 0-.822.359-1.611.998-2.193l4.53-4.12a3.455 3.455 0 011.107-.674 3.71 3.71 0 012.613-.002c.414.156.79.384 1.108.672.317.288.569.63.74 1.007.173.376.261.78.262 1.188 0 .408-.088.811-.259 1.188-.17.377-.422.72-.739 1.008l-4.53 4.12c-.316.29-.693.519-1.107.675a3.705 3.705 0 01-2.617 0 3.449 3.449 0 01-1.108-.675z"/><path d="M22.747 81.799a10.146 10.146 0 002.42-3.294 9.361 9.361 0 00.85-3.885 9.36 9.36 0 00-.849-3.885 10.146 10.146 0 00-2.42-3.293 11.294 11.294 0 00-3.62-2.201 12.133 12.133 0 00-4.273-.773c-1.465 0-2.917.262-4.271.772a11.294 11.294 0 00-3.622 2.2c-3.105 2.823-4.333 7.2-4.717 11.163a32.334 32.334 0 00.043 6.739c.066.561.66.689.762.705h.03c.25 0 3.816.073 4.915-3.093.197-.59.487-1.151.86-1.667.156-.203.381-.352.641-.424.26-.072.54-.062.792.029.253.09.465.255.602.47.136.213.19.462.151.707a4.973 4.973 0 00.778 3.467c.075.116.186.209.32.267a.804.804 0 00.429.058c3.737-.52 7.563-1.683 10.18-4.063zM93.638 10.329c-.27-4.247-3.615-7.29-8.285-7.535-15.86-.86-33.535 5.257-47.32 17.794l-3.676 3.343a67.406 67.406 0 00-3.776 3.708h-11.59c-2.461.086-4.637 1.377-5.869 3.271L6.31 43.305a5.96 5.96 0 00-.38 1.377c.011.798.365 1.56.986 2.123.62.563 1.46.883 2.336.89h8.605c-1.117 3.418-.372 6.783 2.017 8.953l14.549 13.231c2.387 2.173 6.085 2.85 9.843 1.834v7.834c.01.797.363 1.557.982 2.12a3.527 3.527 0 002.331.893 7.653 7.653 0 001.514-.345l13.629-6.196c2.083-1.12 3.502-3.093 3.597-5.338V60.142a72.231 72.231 0 004.077-3.434l3.676-3.343c13.786-12.537 20.512-28.612 19.567-43.037zm-19.31 25.116c-1.642 1.492-3.732 2.509-6.008 2.92a12.82 12.82 0 01-6.778-.607c-2.144-.807-3.976-2.175-5.265-3.93-1.29-1.754-1.977-3.817-1.977-5.927 0-2.11.688-4.173 1.977-5.928 1.29-1.754 3.121-3.122 5.265-3.93a12.82 12.82 0 016.778-.607c2.276.412 4.366 1.428 6.007 2.92 2.2 2.002 3.436 4.715 3.436 7.545s-1.236 5.543-3.436 7.544zM16.253 19.352c-.64-.582-.999-1.37-.999-2.193s.36-1.611.999-2.193l8.834-8.035c.64-.582 1.51-.91 2.416-.91.906 0 1.775.328 2.416.91.64.583 1 1.374 1 2.198 0 .824-.36 1.614-1 2.197l-8.834 8.034a3.452 3.452 0 01-1.11.674 3.709 3.709 0 01-2.616-.005 3.45 3.45 0 01-1.106-.677zM3.447 17.511c-.637-.581-.995-1.369-.995-2.19 0-.82.358-1.608.995-2.19l4.53-4.126a3.6 3.6 0 012.398-.867 3.588 3.588 0 012.38.909c.632.574.99 1.351.999 2.164.008.812-.334 1.595-.954 2.18l-4.53 4.12a3.44 3.44 0 01-1.105.676 3.697 3.697 0 01-2.612 0 3.44 3.44 0 01-1.106-.676zM75.143 72.91a3.093 3.093 0 01-.742-1.006 2.851 2.851 0 01-.261-1.188c0-.407.089-.81.26-1.187.173-.377.425-.718.743-1.006l8.832-8.026a3.593 3.593 0 012.413-.911c.906-.001 1.774.325 2.415.907.641.582 1.001 1.371 1.002 2.194.001.824-.358 1.614-.997 2.197l-8.833 8.034a3.453 3.453 0 01-1.11.673 3.709 3.709 0 01-2.615-.004 3.448 3.448 0 01-1.107-.677zM77.166 84.556c-.64-.582-.999-1.37-.999-2.194 0-.822.36-1.611.999-2.193l4.53-4.12a3.452 3.452 0 011.106-.673 3.711 3.711 0 012.613-.003c.414.156.79.384 1.108.672.318.288.57.63.741 1.007.172.377.26.78.261 1.188 0 .408-.087.811-.258 1.188-.171.377-.423.72-.74 1.008l-4.53 4.12c-.316.29-.692.519-1.107.675a3.708 3.708 0 01-2.616 0 3.449 3.449 0 01-1.108-.675z"/></symbol><symbol viewBox="0 0 95 88" id="benefits-icon2" xmlns="http://www.w3.org/2000/svg"><path d="M38.002 86.547c-2.47 2.392-6.623.591-6.565-2.847l1.261-30.583-22.01-21.474c-2.413-2.47-.623-6.598 2.83-6.525l30.718 1.393L65.702 4.69c2.47-2.392 6.623-.591 6.565 2.847L71.006 38.12l22.01 21.473c2.413 2.471.623 6.598-2.83 6.525l-30.718-1.393-21.466 21.821z"/><path d="M29.216 83.547c-2.47 2.392-6.623.591-6.565-2.847l1.261-30.583-22.01-21.474c-2.413-2.47-.623-6.598 2.83-6.525l30.718 1.393L56.916 1.69c2.47-2.392 6.623-.591 6.565 2.847l-1.26 30.584 22.01 21.473c2.412 2.471.622 6.598-2.83 6.525l-30.719-1.393-21.466 21.821z"/><path d="M33.697 84.547c-2.47 2.392-6.623.591-6.565-2.847l1.261-30.583-22.01-21.474c-2.413-2.47-.623-6.598 2.83-6.525l30.718 1.393L61.397 2.69c2.47-2.392 6.623-.591 6.565 2.847L66.7 36.12l22.01 21.473c2.413 2.471.623 6.598-2.83 6.525l-30.718-1.393-21.466 21.821z"/></symbol><symbol viewBox="0 0 88 88" id="benefits-icon3" xmlns="http://www.w3.org/2000/svg"><path d="M85.401 60.551L61.398 36.546l16.259-7.855c5.114-2.47 4.707-10.02-.706-11.735a5.951 5.951 0 00-.298-.087L14.904.321c-4.846-1.298-9.277 3.133-7.98 7.98l9.598 35.645c.027.101.055.2.087.299 1.715 5.413 9.264 5.82 11.735.705l7.855-16.259 30.956 50.107a7.224 7.224 0 0010.218 0l8.03-8.03A7.223 7.223 0 0085.4 60.55z"/><path d="M78.76 67.384L28.651 38.23l16.26-7.855c5.114-2.47 30.81-4.872 25.397-6.588a5.986 5.986 0 00-.298-.087L8.262 7.154c-4.846-1.297-9.277 3.134-7.98 7.98L16.83 76.888c.027.101.056.2.087.298 1.716 5.413 9.265 5.82 11.735.706l7.855-16.26L60.513 85.63a7.222 7.222 0 0010.218 0l8.03-8.03a7.223 7.223 0 00-.002-10.216z"/><path d="M82.096 64.683L58.092 40.677l16.26-7.855c5.114-2.47 4.707-10.019-.706-11.735a6.095 6.095 0 00-.298-.087L11.598 4.452c-4.845-1.297-9.276 3.134-7.979 7.98l16.548 61.755c.027.101.056.2.087.298 1.716 5.413 9.265 5.82 11.735.706l7.855-16.26L63.85 82.93a7.222 7.222 0 0010.218 0l8.03-8.03a7.223 7.223 0 00-.001-10.216z"/></symbol><symbol viewBox="0 0 95 87" id="benefits-icon4" xmlns="http://www.w3.org/2000/svg"><path d="M75.234.073H27.958A19.722 19.722 0 008.258 19.772v31.517a19.734 19.734 0 0015.759 19.305v12.213a3.94 3.94 0 006.126 3.278l22.634-15.097h22.456a19.722 19.722 0 0019.698-19.699V19.772A19.722 19.722 0 0075.234.073zM51.596 59.17a3.94 3.94 0 110-7.88 3.94 3.94 0 010 7.88zm6.985-25.923a6.752 6.752 0 00-3.046 5.188v4.976a3.94 3.94 0 11-7.879 0v-4.976a14.41 14.41 0 016.268-11.54 3.94 3.94 0 10-6.268-3.182 3.94 3.94 0 11-7.88 0 11.819 11.819 0 1118.805 9.534z"/><path d="M67.39.073H20.113A19.722 19.722 0 00.415 19.772v31.517a19.734 19.734 0 0015.759 19.305v12.213a3.94 3.94 0 006.126 3.278l22.633-15.097H67.39a19.722 19.722 0 0019.698-19.699V19.772A19.722 19.722 0 0067.39.073zM43.75 59.17a3.94 3.94 0 110-7.88 3.94 3.94 0 010 7.88zm6.986-25.923a6.753 6.753 0 00-3.046 5.188v4.976a3.94 3.94 0 01-7.88 0v-4.976a14.413 14.413 0 016.269-11.54 3.94 3.94 0 10-6.268-3.182 3.94 3.94 0 01-7.88 0 11.82 11.82 0 1118.805 9.534z"/><path d="M70.527.073H23.251A19.722 19.722 0 003.552 19.772v31.517a19.734 19.734 0 0015.76 19.305v12.213a3.94 3.94 0 006.125 3.278l22.634-15.097h22.456a19.722 19.722 0 0019.699-19.699V19.772A19.722 19.722 0 0070.527.073zM46.89 59.17a3.94 3.94 0 110-7.88 3.94 3.94 0 010 7.88zm6.985-25.923a6.753 6.753 0 00-3.045 5.188v4.976a3.94 3.94 0 01-7.88 0v-4.976a14.413 14.413 0 016.269-11.54 3.94 3.94 0 10-6.269-3.182 3.94 3.94 0 01-7.879 0 11.82 11.82 0 1118.804 9.534z"/></symbol><symbol viewBox="0 0 26 26" id="close" xmlns="http://www.w3.org/2000/svg"><rect x="1.458" y=".271" width="34" height="2" rx="1" transform="rotate(45 1.458 .271)"/><rect x="25.5" y="1.685" width="34" height="2" rx="1" transform="rotate(135 25.5 1.685)"/></symbol><symbol viewBox="0 0 19 20" id="faq-icon1" xmlns="http://www.w3.org/2000/svg"><path d="M.885.932h8.99a.958.958 0 01.858.53l.693 1.387h5.75a.958.958 0 01.959.958V14.35a.958.958 0 01-.959.958H11.06a.958.958 0 01-.856-.53l-.694-1.386H2.8v5.75H.885V.931z"/></symbol><symbol viewBox="0 0 20 20" id="faq-icon2" xmlns="http://www.w3.org/2000/svg"><path d="M.872 12.385a.887.887 0 00.093.687l1.853 3.139c.123.208.325.36.562.422.238.062.49.03.703-.09l1.362-.77a7.504 7.504 0 001.786 1.01v1.537c0 .5.414.906.926.906h3.706a.917.917 0 00.926-.906v-1.536a7.505 7.505 0 001.785-1.01l1.363.769c.212.12.465.152.702.09a.924.924 0 00.563-.422l1.853-3.139a.889.889 0 00.092-.687.91.91 0 00-.431-.55l-1.366-.771a7.132 7.132 0 00-.001-2.012l1.367-.772a.909.909 0 00.431-.55.89.89 0 00-.092-.688l-1.853-3.139a.938.938 0 00-1.266-.331l-1.37.774a7.512 7.512 0 00-1.777-1.003V1.794c0-.5-.415-.906-.926-.906H8.157a.916.916 0 00-.926.906v1.549a7.509 7.509 0 00-1.776 1.003l-1.372-.774a.938.938 0 00-1.265.331L.965 7.042a.89.89 0 00-.093.688.91.91 0 00.432.55l1.367.772a7.122 7.122 0 00-.002 2.012l-1.365.77a.908.908 0 00-.432.55zm9.138-5.04c1.535 0 2.779 1.217 2.779 2.718s-1.244 2.718-2.78 2.718c-1.534 0-2.778-1.217-2.778-2.718s1.244-2.718 2.779-2.718z"/></symbol><symbol viewBox="0 0 18 19" id="faq-icon3" xmlns="http://www.w3.org/2000/svg"><path d="M11.687 7.672c3.604.4 5.405 1.69 5.405 3.875v.24c0 1.275-.502 2.328-1.506 3.157-1.005.829-2.432 1.38-4.282 1.65v2.01H6.09v-2.01C2.31 16.084.42 14.362.42 11.428v-.168h4.664v.168c0 .622.303 1.084.91 1.387.62.287 1.586.43 2.893.43 1.148 0 1.986-.08 2.512-.239.542-.175.813-.438.813-.789v-.144c0-.255-.12-.446-.359-.574-.239-.143-.638-.247-1.196-.31l-4.712-.503C2.422 10.303.66 8.964.66 6.668v-.24c0-1.18.47-2.144 1.411-2.894.941-.749 2.28-1.243 4.019-1.482V.018h5.214v2.057c1.77.272 3.11.814 4.018 1.627.925.797 1.388 1.858 1.388 3.181v.168h-4.617v-.168c0-.526-.279-.9-.837-1.124-.558-.24-1.475-.359-2.75-.359-1.069 0-1.85.072-2.345.215-.478.128-.717.343-.717.646v.144c0 .207.12.366.359.478.239.112.677.2 1.315.263l4.569.526z"/></symbol><symbol viewBox="0 0 20 16" id="faq-icon4" xmlns="http://www.w3.org/2000/svg"><path d="M17.55 8.564H2.47a.922.922 0 00-.92.92v1.7c0 1.587.897 3.058 2.3 3.794a4.223 4.223 0 003.953-.023l.207-.115a4.25 4.25 0 014 0l.207.115a4.223 4.223 0 003.954.023 4.306 4.306 0 002.299-3.793V9.484a.922.922 0 00-.92-.92zM8.125 12.15c-.437.345-1.126.759-1.885.759-.759 0-1.425-.414-1.885-.759-.345-.276-.345-.736 0-.988.437-.345 1.126-.759 1.885-.759.759 0 1.425.414 1.885.759.345.252.345.712 0 .988zm7.517 0c-.436.345-1.126.759-1.885.759-.758 0-1.425-.414-1.885-.759-.345-.276-.345-.736 0-.988.437-.345 1.127-.759 1.885-.759.759 0 1.425.414 1.885.759.322.252.322.712 0 .988zM19.999 6.257c-.086.672-.69 1.158-1.368 1.158H1.389C.71 7.415.107 6.93.02 6.257a1.335 1.335 0 011.322-1.508h.85A7.402 7.402 0 018.816.657h2.39a7.403 7.403 0 016.606 4.062l.015.03h.85c.794 0 1.426.694 1.323 1.508z"/></symbol><symbol viewBox="0 0 40 40" id="features-icon1" xmlns="http://www.w3.org/2000/svg"><path fill-rule="evenodd" clip-rule="evenodd" d="M1.43 0C.64 0 0 .64 0 1.428v37.14c0 .79.64 1.43 1.429 1.43h28.522L30 40h5.714c.016 0 .032-.003.047-.003h2.81a1.429 1.429 0 000-2.857h-1.428V15.713c0-.79-.64-1.425-1.429-1.425H30c-.788 0-1.428.635-1.428 1.425V37.14h-2.857V24.284c0-.788-.64-1.428-1.429-1.428h-5.713a1.43 1.43 0 00-1.429 1.428V37.14h-2.857v-7.142c0-.789-.64-1.429-1.428-1.429H7.144c-.789 0-1.429.64-1.429 1.429v7.142H2.858V1.428C2.858.64 2.218 0 1.43 0zm14.285 0c-5.518 0-10 4.481-10 10 0 5.518 4.482 9.999 10 9.999s9.999-4.481 9.999-10c0-5.518-4.481-9.999-10-9.999zm0 2.857c3.942 0 7.142 3.2 7.142 7.142 0 3.943-3.2 7.143-7.142 7.143a7.145 7.145 0 01-7.143-7.143c0-3.942 3.2-7.142 7.143-7.142zm-2.857 2.857c-.785 0-1.429.644-1.429 1.428 0 .785.644 1.429 1.429 1.429.784 0 1.428-.644 1.428-1.429 0-.784-.644-1.428-1.428-1.428zm5.714 0c-.366 0-.732.14-1.01.418l-5.714 5.714a1.43 1.43 0 002.02 2.02l5.713-5.714a1.43 1.43 0 00-1.01-2.438zm0 5.714c-.785 0-1.429.644-1.429 1.428 0 .784.644 1.429 1.429 1.429.784 0 1.428-.645 1.428-1.429s-.644-1.428-1.428-1.428zm15.713 5.714V37.14h-2.857V17.145l2.857-.003zM20 25.712h2.857V37.14H20V25.712zM8.572 31.426h2.857v5.714H8.572v-5.714z"/></symbol><symbol viewBox="0 0 36 40" id="features-icon2" xmlns="http://www.w3.org/2000/svg"><path d="M23.576 27.306c-.776-.25-1.387-.921-1.387-1.736 0-.514.25-.988.625-1.34a7.015 7.015 0 002.22-5.123c0-1.617.317-3.245.14-4.853a7.28 7.28 0 00-.782-2.574 7.273 7.273 0 00-3.983-3.486c-2.496-1.102-5.407-.92-7.6.765L9.471 11.47c-1.193.843-1.07 2.808.218 3.498l1.263.725a.027.027 0 01.013.023v3.39c0 2.019.855 3.84 2.221 5.125.374.351.625.825.625 1.339 0 .814-.611 1.485-1.386 1.734-3.205 1.03-5.531 4.04-5.531 7.584v3.878a1.234 1.234 0 002.467 0v-3.878a5.503 5.503 0 012.995-4.894c1.184-.608 2.54.015 3.408 1.024l.203.236c.516.599.8 1.364.8 2.155v2.069a1.234 1.234 0 002.466 0V33.43c0-.799.292-1.57.82-2.17l.218-.248c.883-1.002 2.249-1.612 3.43-.989a5.503 5.503 0 012.938 4.865v3.878a1.234 1.234 0 002.467 0v-3.878c0-3.543-2.325-6.553-5.53-7.583zm-8.873-12.75c-1.696-.39-1.8-2.58-.41-3.626 1.53-1.193 3.56-1.201 5.276-.416a4.795 4.795 0 013.127 3.764c.011.07-.06.127-.127.103-3.078-.928-4.675.91-7.866.175zm5.019 12.901c0 .289-.105.567-.296.783l-.128.145a1.696 1.696 0 01-2.558-.014l-.184-.213a1.147 1.147 0 01-.278-.749c0-.75.715-1.3 1.465-1.274.155.006.31.006.466.002.775-.023 1.513.546 1.513 1.32zm-.723-4.841c.415 0 .794-.14 1.076-.37a.554.554 0 01.345-.135c.396 0 .587.451.268.685a4.54 4.54 0 01-2.689.878 4.572 4.572 0 01-4.567-4.567v-1.573c0-.394.378-.677.762-.595a11.456 11.456 0 00.676.122c0-.002 0-.002.002-.002a11.28 11.28 0 005.066-.386c.274-.086.554-.13.832-.132 1.228-.011 1.796 1.338 1.796 2.566 0 .744-.686 1.242-1.43 1.242h-.126c-.504 0-.973-.257-1.451-.416a1.782 1.782 0 00-.56-.089c-.875 0-1.584.62-1.584 1.386 0 .765.709 1.386 1.584 1.386z"/><path d="M31.515 27.564a1.234 1.234 0 01-1.693-.418l-1.394-2.306a1.234 1.234 0 01-.022-1.238c.447-.803.8-1.655 1.05-2.534.122-.426.462-.754.892-.86l1.202-.295a2.195 2.195 0 000-4.264l-1.19-.292a1.233 1.233 0 01-.894-.863 11.942 11.942 0 00-1.043-2.537 1.233 1.233 0 01.024-1.235l.656-1.086a2.184 2.184 0 00-3.006-2.993l-1.046.638c-.381.232-.858.24-1.247.022a11.819 11.819 0 00-2.52-1.054 1.234 1.234 0 01-.857-.894l-.3-1.23a2.172 2.172 0 00-4.22 0l-.297 1.219a1.233 1.233 0 01-.86.895c-.875.248-1.724.6-2.524 1.047a1.233 1.233 0 01-1.243-.024l-1.056-.644A2.184 2.184 0 006.921 9.61l.651 1.077c.23.379.237.851.022 1.238-.447.803-.8 1.655-1.05 2.534a1.234 1.234 0 01-.893.86l-1.2.294a2.195 2.195 0 000 4.264l1.19.293c.431.106.772.435.893.863.247.879.598 1.732 1.043 2.537.213.386.204.857-.024 1.235l-1.4 2.315a1.233 1.233 0 11-2.111-1.275l.561-.93c.3-.495.32-1.106.1-1.641-.222-.539-.67-.96-1.236-1.098l-2.216-.544a1.233 1.233 0 01-.94-1.198v-5.377c0-.568.388-1.063.94-1.198l2.232-.548c.564-.139 1.011-.557 1.234-1.094.222-.536.203-1.149-.097-1.646l-1.191-1.97a1.233 1.233 0 01.181-1.508L7.395 3.29a1.233 1.233 0 011.517-.183l1.97 1.202c.491.3 1.1.32 1.633.1.531-.221.945-.665 1.082-1.224l.546-2.244C14.277.389 14.773 0 15.34 0h5.353c.569 0 1.064.39 1.198.942l.55 2.26c.136.558.548 1 1.077 1.222.534.223 1.145.203 1.639-.098l1.955-1.193a1.233 1.233 0 011.517.183l3.784 3.802c.4.402.475 1.024.182 1.509l-1.2 1.984c-.299.495-.319 1.107-.098 1.642.221.538.67.959 1.235 1.098l2.216.544c.552.136.94.63.94 1.198v5.377c0 .568-.388 1.062-.94 1.198l-2.232.548c-.564.139-1.011.557-1.234 1.093-.222.537-.203 1.15.097 1.646l.553.915a1.233 1.233 0 01-.418 1.694z"/></symbol><symbol viewBox="0 0 40 40" id="features-icon3" xmlns="http://www.w3.org/2000/svg"><g clip-path="url(#clip0_203_844)"><path d="M28.792 0h-.02a11.176 11.176 0 00-8.066 3.434 18.52 18.52 0 00-2.351-.15C8.218 3.284 0 11.504 0 21.642c0 10.14 8.218 18.359 18.355 18.359 10.138 0 18.356-8.22 18.356-18.359 0-.525-.023-1.044-.066-1.558C39.402 16.304 40 13.193 40 11.21 40 5.03 34.973 0 28.792 0zM23.63 23.21c.18.174.36.345.54.51a22.051 22.051 0 01-5.693 12.83 21.901 21.901 0 01-5.736-13.34h10.889zm-10.9-2.97a21.894 21.894 0 015.789-13.554 11.15 11.15 0 00-.954 4.523c0 3.533 1.811 6.788 3.474 9.03h-8.31l.002.002zm-5.254-9.48a15.292 15.292 0 017.182-4.062 24.944 24.944 0 00-4.9 13.543H3.031a15.271 15.271 0 014.443-9.48zM3.047 23.21h6.719c.299 4.88 1.991 9.492 4.887 13.374a15.292 15.292 0 01-7.179-4.06 15.275 15.275 0 01-4.428-9.315zm26.189 9.313a15.296 15.296 0 01-6.89 3.987 25.019 25.019 0 004.545-10.722c.31.182.61.339.898.464a2.5 2.5 0 001.996 0c1.148-.5 2.512-1.486 3.845-2.743a15.274 15.274 0 01-4.395 9.015zm4.593-13.632c-1.814 2.33-3.834 3.954-5.041 4.551-1.21-.598-3.232-2.222-5.048-4.552-2.068-2.653-3.207-5.381-3.207-7.681 0-4.544 3.696-8.24 8.239-8.24h.021c4.543 0 8.239 3.697 8.239 8.24 0 2.3-1.137 5.029-3.202 7.682h-.001z"/><path d="M28.782 6.6a4.585 4.585 0 00-4.58 4.58 4.585 4.585 0 004.58 4.58 4.586 4.586 0 004.58-4.58 4.586 4.586 0 00-4.58-4.58zm0 6.192a1.614 1.614 0 01-1.612-1.611c0-.889.723-1.612 1.612-1.612.89 0 1.612.723 1.612 1.611 0 .889-.723 1.612-1.612 1.612z"/></g><defs><clipPath><path d="M0 0h40v40H0z"/></clipPath></defs></symbol><symbol viewBox="0 0 40 40" id="features-icon4" xmlns="http://www.w3.org/2000/svg"><path d="M22.857 24.287c-.788 0-1.428.638-1.428 1.428v4.286a1.428 1.428 0 102.857 0v-4.286c0-.79-.64-1.428-1.429-1.428zM27.143 22.858c-.788 0-1.428.639-1.428 1.428v5.715a1.428 1.428 0 102.857 0v-5.715c0-.79-.64-1.428-1.428-1.428zM31.43 21.43c-.79 0-1.43.638-1.43 1.428V30a1.428 1.428 0 102.858 0v-7.143c0-.79-.64-1.429-1.429-1.429z"/><path d="M38.572 32.858h-1.428V21.474a4.318 4.318 0 00-2.907-4.08c.014-.085.05-.162.05-.25 0-2.053.742-3.01 2.438-4.705.093-.093.147-.207.21-.316a4.724 4.724 0 001.637-3.551 4.748 4.748 0 00-4.056-4.676l-7.171-1.024a1.429 1.429 0 00-1.63 1.414 4.291 4.291 0 00-4.286 4.286 4.291 4.291 0 004.286 4.286c0 .414.18.807.493 1.08a1.432 1.432 0 001.137.334l4.883-.697c-.495.984-.799 2.114-.799 3.569H17.314A32.306 32.306 0 006.703 3.888L5.285 2.857h.429a1.428 1.428 0 100-2.857H1.428C.64 0 0 .639 0 1.429v4.285a1.428 1.428 0 102.857 0V4.623l2.166 1.574a29.428 29.428 0 019.14 10.945h-1.306c-2.403 0-4.286 1.881-4.286 4.286v11.429H7.143c-.789 0-1.429.639-1.429 1.428A5.72 5.72 0 0011.428 40h22.858a5.72 5.72 0 005.715-5.715c0-.788-.64-1.427-1.429-1.427zM24.286 8.572a1.43 1.43 0 011.429-1.429V10a1.43 1.43 0 01-1.429-1.428zm4.286-2.639l5.54.792a1.876 1.876 0 011.603 1.847c0 .923-.689 1.716-1.601 1.847l-5.542.791V5.933zM11.429 21.43c0-.814.614-1.428 1.428-1.428h2.52a29.382 29.382 0 011.766 10 1.428 1.428 0 102.857 0c0-3.433-.564-6.803-1.61-10h14.468c.801 0 1.428.647 1.428 1.473v11.384H11.428V21.43zm22.857 15.715H11.428a2.855 2.855 0 01-2.472-1.428H36.76a2.859 2.859 0 01-2.475 1.428z"/><path d="M8.571 12.858a4.291 4.291 0 00-4.286-4.286A4.291 4.291 0 000 12.858a4.291 4.291 0 004.285 4.285 4.291 4.291 0 004.286-4.285zm-4.286 1.428a1.43 1.43 0 01-1.428-1.428 1.43 1.43 0 011.428-1.429c.788 0 1.429.64 1.429 1.429a1.43 1.43 0 01-1.429 1.428zM13.276 8.153a1.425 1.425 0 002.02 0l1.133-1.133 1.133 1.133a1.425 1.425 0 002.02 0 1.427 1.427 0 000-2.02L18.449 5l1.133-1.133a1.427 1.427 0 000-2.02 1.427 1.427 0 00-2.02 0L16.429 2.98l-1.133-1.133a1.427 1.427 0 00-2.02 0 1.427 1.427 0 000 2.02L14.409 5l-1.133 1.133a1.427 1.427 0 000 2.02z"/></symbol><symbol viewBox="0 0 40 41" id="features-icon5" xmlns="http://www.w3.org/2000/svg"><g clip-path="url(#clip0_203_801)"><path d="M24.185 15.722l2.482-2.412a1.173 1.173 0 00-.646-2l-3.427-.503-1.545-3.11a1.172 1.172 0 00-1.05-.65h-.002a1.172 1.172 0 00-1.05.655L17.43 10.8l-3.423.492a1.172 1.172 0 00-.652 1.997l2.474 2.42-.59 3.41a1.172 1.172 0 001.698 1.238l3.062-1.606 3.065 1.616a1.172 1.172 0 001.702-1.233l-.58-3.412zM22.11 14.47a1.173 1.173 0 00-.339 1.037l.285 1.68-1.51-.796a1.17 1.17 0 00-1.09-.001l-1.503.788.29-1.677c.065-.38-.06-.768-.336-1.037l-1.217-1.19 1.685-.243c.383-.055.715-.296.886-.644l.746-1.52.76 1.531c.171.344.5.583.88.639l1.684.247-1.221 1.186z"/><path d="M36.493 14.078h-1.296a15.12 15.12 0 00-4.405-9.589A15.134 15.134 0 0020.016.015h-.01c-4.247 0-8.145 1.661-11.035 4.688h-.686c-.937 0-1.819.365-2.483 1.028-.378.378-.66.826-.833 1.315H3.516A3.527 3.527 0 000 10.572a3.501 3.501 0 003.512 3.506H4.82a15.338 15.338 0 001.02 6.78c1.652 4.173 4.37 5.97 5.31 6.868.227.266 2.319 2.061 2.791 5.18h-.994a1.172 1.172 0 000 2.343h1.194v1.242c-.003 1.937 1.535 3.521 3.486 3.524h4.691c1.95 0 3.538-1.572 3.541-3.508V35.25h1.15a1.172 1.172 0 100-2.343h-.977c.441-2.22 1.734-4.303 3.677-5.91a15.24 15.24 0 003.289-3.785 3.535 3.535 0 002.035-2.102h1.455c1.934 0 3.509-1.562 3.512-3.484.003-1.943-1.563-3.544-3.507-3.547zM6.185 11.707a1.155 1.155 0 00-.302.027h-2.37c-.649-.001-1.17-.513-1.17-1.159A1.181 1.181 0 013.518 9.39h2.424c.647 0 1.171-.524 1.172-1.17 0-.314.123-.609.345-.83.222-.222.515-.344.829-.344h2.343c.643.001 1.168.547 1.167 1.2-.001.642-.514 1.144-1.17 1.144H8.281c-.646 0-1.17.524-1.172 1.17 0 .562-.396 1.032-.924 1.147zm10.088 20.942a10.984 10.984 0 00-1.734-4.509h4.29v4.766h-2.515l-.04-.257zm7.243 3.856c-.001.644-.538 1.166-1.2 1.166H17.63c-.648 0-1.146-.53-1.145-1.178v-1.244h7.032v1.256zm.138-3.6h-2.482V28.14h4.367c-.977 1.465-1.624 3.086-1.885 4.767zm3.874-7.109H12.516a13.173 13.173 0 00-.576-.492c-3.475-2.791-5.215-7.029-4.748-11.459a3.534 3.534 0 002.06-2.111h1.377c1.934 0 3.509-1.562 3.512-3.484a3.553 3.553 0 00-2.043-3.222c2.236-1.734 4.973-2.67 7.908-2.67h.009a12.806 12.806 0 019.117 3.787 12.796 12.796 0 013.73 8.143 3.542 3.542 0 00-2.111 2.133h-1.376a3.527 3.527 0 00-3.516 3.526 3.5 3.5 0 003.512 3.505h.581c-1.018 1.232-1.676 1.64-2.424 2.344zm8.959-7.03h-2.425c-.646 0-1.17.523-1.171 1.17-.001.647-.527 1.173-1.174 1.173h-2.344c-.65-.001-1.17-.513-1.17-1.159a1.181 1.181 0 011.174-1.185h2.345c.647 0 1.171-.524 1.172-1.17.001-.59.439-1.098 1.021-1.174.05.007 2.575 0 2.575 0 .642.001 1.167.547 1.166 1.2 0 .642-.514 1.144-1.17 1.144z"/></g><defs><clipPath><path transform="translate(0 .015)" d="M0 0h40v40H0z"/></clipPath></defs></symbol><symbol viewBox="0 0 41 41" id="features-icon6" xmlns="http://www.w3.org/2000/svg"><path d="M32.314 29.956a9.221 9.221 0 016.457 8.797H20.333c0-4.14 2.728-7.63 6.457-8.797" stroke="#000" stroke-width="3.125" stroke-miterlimit="10" stroke-linecap="round" stroke-linejoin="round"/><path d="M34.45 25.911a4.898 4.898 0 11-9.796 0 4.898 4.898 0 019.796 0zM13.876 10.82a9.221 9.221 0 016.458 8.798H1.896c0-4.14 2.727-7.63 6.457-8.797" stroke="#000" stroke-width="3.125" stroke-miterlimit="10" stroke-linecap="round" stroke-linejoin="round"/><path d="M16.012 6.776a4.898 4.898 0 11-9.795 0 4.898 4.898 0 019.795 0zM15.646 32.816H1.896v-7.813" stroke="#000" stroke-width="3.125" stroke-miterlimit="10" stroke-linecap="round" stroke-linejoin="round"/><path d="M11.448 37.014l4.198-4.198-4.198-4.199M25.021 6.077h13.75v7.812" stroke="#000" stroke-width="3.125" stroke-miterlimit="10" stroke-linecap="round" stroke-linejoin="round"/><path d="M29.22 1.878L25.02 6.077l4.198 4.198" stroke="#000" stroke-width="3.125" stroke-miterlimit="10" stroke-linecap="round" stroke-linejoin="round"/></symbol><symbol viewBox="0 0 40 40" id="features-icon7" xmlns="http://www.w3.org/2000/svg"><path fill-rule="evenodd" clip-rule="evenodd" d="M28.75 17.5c-6.206 0-11.25 5.041-11.25 11.25S22.544 40 28.75 40 40 34.959 40 28.75 34.956 17.5 28.75 17.5zm0 3.75c4.138 0 7.5 3.36 7.5 7.5 0 4.14-3.362 7.5-7.5 7.5-4.137 0-7.5-3.36-7.5-7.5 0-4.14 3.363-7.5 7.5-7.5zm-13.456 9.824C8.75 30.017 3.75 24.337 3.75 17.5c0-7.589 6.162-13.75 13.75-13.75 6.837 0 12.519 5.001 13.575 11.543a1.873 1.873 0 103.7-.598C33.431 6.368 26.206 0 17.5 0 7.844 0 0 7.841 0 17.5c0 8.704 6.369 15.931 14.694 17.276a1.873 1.873 0 002.15-1.552 1.874 1.874 0 00-1.55-2.15zm15.881-5.525L27.5 29.223l-1.175-1.174a1.874 1.874 0 10-2.65 2.652l2.5 2.5a1.873 1.873 0 002.65 0l5-5a1.874 1.874 0 10-2.65-2.651zm-17.35-1.723l5-5c.35-.352.55-.829.55-1.326v-10a1.874 1.874 0 10-3.75 0v9.223l-4.45 4.451a1.874 1.874 0 102.65 2.651z"/></symbol><symbol viewBox="0 0 37 39" id="features-icon8" xmlns="http://www.w3.org/2000/svg"><path d="M32.813 23.125h-2c-1.75 0-3.25 1.25-3.625 2.875-.5-.188-1.188-.563-1.938-1.25l-3.063-3.063c-.312-.375-1.437-1.625-3-1.75-.625-.062-1.625.125-2.625 1.063-1.562 1.563-.812 3.75-.125 4.688 0 0 0 .062.063.062l1.125 1.5c-.563.25-1.438.563-2.813.75-3-1.25-4.312-3.125-4.312-3.125-.125-.188-1.313-1.813-3-2.125a2.877 2.877 0 00-2.313.625c-.687.563-1.125 1.25-1.312 2.063a2.367 2.367 0 00-.938 0c-.812.125-1.5.625-2 1.375-.562.812-.75 1.75-.562 2.625.375 1.687 2 2.75 2.125 2.875.125.062 3.5 2.25 8.313 3.812 3.312 1.063 6.562 1.625 9.624 1.625 2.5 0 4.875-.375 7.063-1.063.563 1.25 1.875 2.126 3.313 2.126h2a3.655 3.655 0 003.687-3.688v-8.313a3.655 3.655 0 00-3.688-3.687zm-26.126 2.25c.188-.125.313-.125.438-.125.438.063 1.063.688 1.313 1.063.062.062.5.75 1.5 1.625-2.25-.438-3.563-1.375-3.563-1.375l-.063-.063c-.125-.625.063-.875.375-1.125zm20.438 8.75c-11 3.875-23.188-3.813-23.313-3.938-.187-.125-.937-.687-1.062-1.312 0-.125 0-.375.188-.688.124-.187.25-.25.374-.25.438-.062 1.25.313 1.626.563.125.063 2.875 2.125 7.625 2.125 6.062 0 7.687-2.063 7.937-2.438.313-.437.25-1-.063-1.437l-1.812-2.438c-.063-.125-.625-1.062-.125-1.562.375-.375.563-.313.625-.313.438 0 1 .563 1.188.813l.125.125 3.125 3.125c1.375 1.375 2.687 1.875 3.625 2.125v5.5h-.063zm6.875.938c0 .624-.563 1.187-1.188 1.187h-2c-.625 0-1.187-.563-1.187-1.188v-8.25c0-.625.563-1.187 1.188-1.187h2c.624 0 1.187.563 1.187 1.188v8.25zM5.25 14.375H6.5v1.25c0 1.375 1.125 2.5 2.5 2.5h6.25c.688 0 1.25-.563 1.25-1.25v-2.5c0-.375.25-.625.625-.625s.625.25.625.625v2.5c0 .688.563 1.25 1.25 1.25h2.5c1.375 0 2.5-1.125 2.5-2.5v-5h1.25A3.095 3.095 0 0028.375 7.5a3.095 3.095 0 00-3.125-3.125H24v-1.25c0-1.375-1.125-2.5-2.5-2.5h-6.25c-.688 0-1.25.563-1.25 1.25v2.5c0 .375-.25.625-.625.625s-.625-.25-.625-.625v-2.5c0-.688-.563-1.25-1.25-1.25H9a2.507 2.507 0 00-2.5 2.5v5H5.25a3.095 3.095 0 00-3.125 3.125 3.095 3.095 0 003.125 3.125zm0-3.75h2.5c.688 0 1.25-.563 1.25-1.25v-6.25h1.25v1.25A3.095 3.095 0 0013.375 7.5 3.095 3.095 0 0016.5 4.375v-1.25h5v2.5c0 .688.563 1.25 1.25 1.25h2.5c.375 0 .625.25.625.625s-.25.625-.625.625h-2.5c-.688 0-1.25.563-1.25 1.25v6.25h-1.25v-1.25a3.095 3.095 0 00-3.125-3.125A3.095 3.095 0 0014 14.375v1.25H9v-2.5c0-.688-.563-1.25-1.25-1.25h-2.5c-.375 0-.625-.25-.625-.625s.25-.625.625-.625z"/></symbol><symbol viewBox="0 0 43 43" id="footer-icon1" xmlns="http://www.w3.org/2000/svg"><path fill-rule="evenodd" clip-rule="evenodd" d="M0 21.777c0 11.603 9.406 21.01 21.01 21.01 11.603 0 21.01-9.407 21.01-21.01 0-11.604-9.407-21.01-21.01-21.01C9.406.767 0 10.174 0 21.777zm17.158 9.63l.357-5.356 9.742-8.792c.428-.38-.093-.564-.66-.22l-12.024 7.585-5.193-1.62c-1.122-.344-1.13-1.115.251-1.669l20.238-7.804c.924-.42 1.817.222 1.464 1.637L27.886 31.41c-.24 1.154-.938 1.43-1.904.897l-5.25-3.878-2.524 2.453-.023.023c-.283.275-.516.503-1.027.503z"/></symbol><symbol viewBox="0 0 43 43" id="footer-icon2" xmlns="http://www.w3.org/2000/svg"><path fill-rule="evenodd" clip-rule="evenodd" d="M.951 21.777c0 11.603 9.407 21.01 21.01 21.01 11.603 0 21.01-9.407 21.01-21.01 0-11.604-9.407-21.01-21.01-21.01-11.603 0-21.01 9.407-21.01 21.01zm17.158 9.63l.358-5.356 9.742-8.792c.427-.38-.094-.564-.661-.22l-12.024 7.585-5.193-1.62c-1.122-.344-1.13-1.115.252-1.669l20.237-7.804c.925-.42 1.817.222 1.464 1.637L28.837 31.41c-.24 1.154-.938 1.43-1.904.897l-5.25-3.878-2.523 2.453-.024.023c-.282.275-.516.503-1.027.503z"/></symbol><symbol viewBox="0 0 190 64" id="footer-logo" xmlns="http://www.w3.org/2000/svg"><path d="M27.653 1.445c-2.782 1.481-3.662 1.97-3.662 2.059 0 .06.096.193.208.296.096.104.288.37.415.593.128.222.352.548.528.696.16.163.288.326.288.37 0 .178 2.191 2.948 2.32 2.948.127-.015 3.486-6.428 3.39-6.503-.432-.296-1.951-.947-2.223-.947-.208.014-.768.222-1.264.488zM31.348 3.815c-.384.74-1.2 2.325-1.791 3.495-.608 1.185-1.056 2.237-1.008 2.355.048.119.528.8 1.056 1.496.527.696 2.463 3.303 4.302 5.791 1.84 2.474 3.407 4.532 3.47 4.547.064.015 1.04-1.54 2.176-3.48 1.12-1.926 2.719-4.666 3.55-6.073.832-1.422 1.52-2.621 1.52-2.666 0-.089-3.823-2.192-6.382-3.51-.32-.163-1.263-.681-2.095-1.14a89.412 89.412 0 00-2.16-1.156c-.351-.177-.927-.488-1.295-.681l-.655-.356-.688 1.378zM21.911 4.54c-.575.327-1.391.786-1.839 1.008-.432.222-1.551.83-2.479 1.333-.927.518-2 1.096-2.399 1.303-.4.208-2.08 1.111-3.759 2.03-1.663.903-4.686 2.547-6.717 3.628C2.703 14.923.8 15.96.528 16.123L0 16.434v2.755l2.383 2.696c4.142 4.695 9.98 11.286 10.156 11.463.096.09.528.578.96 1.067l.8.903.415-.859c.24-.459 1.344-2.68 2.463-4.917 1.12-2.237 2.127-4.236 2.255-4.443.176-.326 4.255-8.354 5.518-10.887.24-.488.848-1.673 1.344-2.65.495-.963.895-1.823.895-1.882 0-.148-3.742-5.272-4.062-5.569-.128-.118-.432-.015-1.216.43zM43.583 13.057c-1.04 1.778-2.127 3.629-2.415 4.118-.272.488-1.088 1.88-1.808 3.08-.703 1.215-1.295 2.237-1.295 2.267 0 .103.912 1.333 1.167 1.57.128.103.32.37.432.562.112.208 1.791 2.503 3.727 5.11 1.935 2.607 4.062 5.465 4.718 6.369 3.279 4.458 4.558 6.146 4.59 6.117.016-.03 1.2-2.014 2.623-4.429l2.575-4.384V16.42l-1.231-.68c-1.52-.83-5.806-3.14-6.702-3.615-.352-.178-1.44-.77-2.399-1.303-.96-.533-1.823-.978-1.919-.978-.096 0-1.024 1.452-2.063 3.214zM24.55 17.205c-1.839 3.658-3.87 7.657-4.51 8.916a113.289 113.289 0 00-1.167 2.31c0 .03-.464.933-1.008 2.015-1.967 3.836-2.83 5.554-2.83 5.657 0 .09 2.142 2.533 5.66 6.473.609.696 1.456 1.644 1.872 2.118l.768.844.544-.918c1.007-1.689 1.391-2.355 5.341-9.08 4.59-7.805 4.67-7.953 6.318-10.708.688-1.155 1.248-2.177 1.248-2.251 0-.074-.096-.222-.224-.326a4.27 4.27 0 01-.432-.578c-.128-.207-1.232-1.732-2.463-3.391a1388.214 1388.214 0 01-3.279-4.429c-1.567-2.133-2.431-3.273-2.463-3.273-.016 0-1.535 2.977-3.375 6.62zM.032 34.208L.08 47.656l2.127 1.155c1.168.637 2.575 1.378 3.135 1.674l1.008.518 2.974-5.88c1.632-3.228 3.311-6.546 3.711-7.36.464-.904.704-1.541.608-1.645-.064-.104-.56-.666-1.104-1.274-.527-.592-2.975-3.347-5.422-6.117C.56 21.322.592 21.352.272 21.041c-.256-.282-.272.31-.24 13.167zM36.578 24.995c-.496.844-.912 1.585-.912 1.644 0 .06-.08.178-.16.281-.144.149-1.151 1.837-3.854 6.473-.32.533-2.128 3.614-4.03 6.843-1.904 3.229-3.488 5.939-3.503 5.998-.032.074 2.047 2.488 4.59 5.377a891.075 891.075 0 015.805 6.576c.64.74 1.264 1.333 1.36 1.303.096-.03.576-.267 1.071-.548.48-.267 2.575-1.407 4.639-2.518 2.063-1.11 3.87-2.133 4.014-2.266.144-.133.512-.681.832-1.215 2.415-4.161 5.454-9.286 5.581-9.434.176-.208-.271-.86-5.853-8.339-2.991-4.028-4.319-5.82-7.053-9.553a69.305 69.305 0 00-1.52-2.044c-.048-.06-.512.578-1.007 1.422zM56.938 37.051c-.48.874-.944 1.644-1.008 1.733-.336.415-2.511 4.191-2.511 4.354 0 .237 3.487 4.918 3.678 4.918.064 0 .272-.119.464-.267.336-.252.336-.281.304-6.295l-.048-6.028-.88 1.585z"/><path d="M13.995 38.029c-.24.503-1.872 3.747-3.615 7.198-1.743 3.466-3.167 6.295-3.135 6.31.032.03 1.616.873 2.831 1.525.304.163 1.647.874 2.959 1.6 1.327.71 2.703 1.451 3.07 1.644l.672.355.224-.34c.192-.282 2.367-3.985 5.214-8.872l.56-.978-.544-.651c-.608-.726-4.814-5.495-4.958-5.614-.048-.044-.64-.726-1.327-1.525-.704-.785-1.312-1.467-1.376-1.496-.064-.045-.32.34-.575.844z"/><path d="M50.108 48.604c-1.423 2.429-2.559 4.428-2.527 4.458.032.045.8-.326 1.712-.814 4.286-2.296 6.461-3.481 6.589-3.6.096-.089-.448-.962-1.423-2.295-.864-1.185-1.616-2.148-1.664-2.148-.048 0-1.263 1.985-2.687 4.399zM23.063 47.938c-.4.755-1.183 2.088-3.23 5.524-2.208 3.718-2.16 3.614-1.984 3.762.08.074.832.489 1.663.948.832.444 2.336 1.244 3.327 1.792.992.533 2.111 1.14 2.48 1.333a89.6 89.6 0 011.918 1.037c.688.37 1.44.681 1.68.681s1.007-.31 1.711-.681c.704-.37 1.6-.844 1.967-1.052 1.616-.844 2.16-1.155 2.175-1.244.016-.06-.24-.385-.575-.74-.32-.356-2.144-2.415-4.047-4.577-1.919-2.162-4.174-4.71-5.022-5.658-.847-.963-1.567-1.748-1.631-1.748-.048 0-.24.282-.432.623zM86.93 38.84v.646h-4.22l-.925-2.325h-6.2l-.925 2.325h-4.22v-.646l5.856-13.476h4.779L86.93 38.84zm-6.587-5.253l-1.658-4.111-1.657 4.111h3.315zm21.086-8.223v3.875h-8.761v1.636h8.331v3.875h-8.331v4.736H88.34V25.364h13.088zm26.867 0v3.875h-8.762v1.636h8.331v3.875h-8.331v4.736h-4.327V25.364h13.089zm6.396 0v10.247h8.761v3.875h-13.088V25.364h4.327zm23.54 0v3.703h-8.762v1.528h8.331v3.638h-8.331v1.55h8.762v3.703h-13.089V25.364h13.089zm18.075.646l-5.253 6.415 5.253 6.415v.646h-4.994l-3.186-4.004-3.165 4.004h-4.994v-.646l5.253-6.415-5.253-6.415v-.646h4.994l3.165 4.004 3.186-4.004h4.994v.646z"/><path d="M109.547 29.605c0 1.579-.732 2.519-2.196 2.82 1.464.301 2.196 1.241 2.196 2.82v1.335c0 .473.294.71.883.71h2.712v3.724h-3.487c-.818 0-1.557-.172-2.218-.516a3.843 3.843 0 01-1.528-1.378 3.879 3.879 0 01-.538-2.024v-2.088a.657.657 0 00-.237-.538c-.158-.13-.373-.194-.646-.194h-1.485v-3.702h1.485c.273 0 .488-.065.646-.194a.657.657 0 00.237-.538v-2.088c0-.747.179-1.414.538-2.002a3.791 3.791 0 011.528-1.4c.661-.344 1.4-.516 2.218-.516h3.487v3.702h-2.712c-.287 0-.51.065-.668.194-.143.13-.215.309-.215.538v1.335zm78.241.969v3.702h-1.485c-.273 0-.488.065-.646.194a.657.657 0 00-.237.538v2.088a3.76 3.76 0 01-.56 2.024c-.358.588-.868 1.047-1.528 1.378-.646.344-1.378.516-2.196.516h-3.487v-3.702h2.712c.287 0 .503-.065.646-.194a.657.657 0 00.237-.538v-1.335c0-1.579.732-2.519 2.196-2.82-1.464-.301-2.196-1.241-2.196-2.82V28.27c0-.473-.294-.71-.883-.71h-2.712v-3.724h3.487c.818 0 1.55.172 2.196.516.66.33 1.17.797 1.528 1.4.374.588.56 1.255.56 2.002v2.088c0 .23.079.409.237.538.158.13.373.194.646.194h1.485z"/></symbol><symbol viewBox="0 0 190 63" id="logo" xmlns="http://www.w3.org/2000/svg"><path d="M27.653.489c-2.783 1.48-3.662 1.97-3.662 2.058 0 .06.095.193.207.297.096.103.288.37.416.592.128.222.352.548.528.696.16.163.288.326.288.37 0 .178 2.191 2.948 2.32 2.948.127-.015 3.486-6.428 3.39-6.502C30.708.652 29.189 0 28.917 0c-.208.015-.768.222-1.264.489zM31.348 2.859c-.384.74-1.2 2.325-1.792 3.495-.607 1.185-1.055 2.236-1.007 2.355.048.118.527.8 1.055 1.496.528.696 2.463 3.303 4.303 5.79 1.839 2.474 3.406 4.533 3.47 4.548.064.015 1.04-1.54 2.175-3.48 1.12-1.926 2.72-4.666 3.551-6.073.832-1.422 1.52-2.622 1.52-2.666 0-.09-3.823-2.192-6.382-3.51-.32-.163-1.264-.682-2.095-1.14a89.532 89.532 0 00-2.16-1.156c-.351-.178-.927-.489-1.295-.681l-.656-.356-.687 1.378zM21.911 3.584c-.575.326-1.391.785-1.839 1.007-.432.223-1.551.83-2.479 1.333-.927.519-2 1.096-2.399 1.304-.4.207-2.08 1.11-3.759 2.029-1.663.903-4.686 2.547-6.717 3.629-2.015 1.08-3.918 2.118-4.19 2.28L0 15.477v2.755l2.383 2.696c4.142 4.695 9.98 11.286 10.156 11.464.096.089.528.577.96 1.066l.8.904.415-.86c.24-.459 1.344-2.68 2.463-4.917 1.12-2.236 2.127-4.236 2.255-4.443.176-.326 4.255-8.353 5.518-10.886.24-.489.848-1.674 1.344-2.651.495-.963.895-1.822.895-1.881 0-.148-3.742-5.273-4.062-5.57-.128-.118-.432-.014-1.216.43zM43.583 12.1c-1.04 1.778-2.127 3.63-2.415 4.118a155.23 155.23 0 01-1.807 3.08c-.704 1.215-1.296 2.237-1.296 2.267 0 .104.912 1.333 1.168 1.57.128.103.32.37.431.563.112.207 1.792 2.503 3.727 5.11 1.935 2.606 4.062 5.465 4.718 6.368 3.279 4.458 4.558 6.147 4.59 6.117.016-.03 1.2-2.014 2.623-4.428l2.575-4.384V15.463l-1.231-.682c-1.52-.83-5.806-3.14-6.702-3.614-.352-.177-1.44-.77-2.399-1.303-.96-.533-1.823-.977-1.919-.977-.096 0-1.024 1.451-2.063 3.213zM24.55 16.248a2529.4 2529.4 0 01-4.51 8.916 113.439 113.439 0 00-1.168 2.31c0 .03-.463.934-1.007 2.015-1.967 3.836-2.83 5.554-2.83 5.658 0 .089 2.142 2.532 5.66 6.472.608.696 1.456 1.644 1.872 2.118l.768.844.543-.918c1.008-1.688 1.392-2.355 5.342-9.08 4.59-7.805 4.67-7.953 6.318-10.708.688-1.155 1.247-2.177 1.247-2.25 0-.075-.095-.223-.223-.327a4.26 4.26 0 01-.432-.577c-.128-.208-1.232-1.733-2.463-3.392a1374.513 1374.513 0 01-3.279-4.429c-1.567-2.132-2.431-3.273-2.463-3.273-.016 0-1.535 2.977-3.375 6.62zM.032 33.25L.08 46.7l2.127 1.155c1.168.636 2.575 1.377 3.135 1.673l1.008.519 2.974-5.88c1.632-3.23 3.311-6.547 3.71-7.361.465-.904.705-1.54.609-1.645-.064-.103-.56-.666-1.104-1.273-.528-.593-2.975-3.348-5.422-6.117C.56 20.365.592 20.395.272 20.084c-.256-.282-.272.31-.24 13.167zM36.578 24.038c-.496.845-.912 1.585-.912 1.644 0 .06-.08.178-.16.282-.144.148-1.151 1.836-3.854 6.472-.32.533-2.128 3.614-4.03 6.843-1.904 3.229-3.488 5.94-3.503 5.998-.032.075 2.047 2.489 4.59 5.377a891.772 891.772 0 015.805 6.576c.64.74 1.264 1.333 1.36 1.303.096-.03.576-.266 1.071-.548.48-.266 2.575-1.407 4.639-2.518 2.063-1.11 3.87-2.132 4.014-2.266.144-.133.512-.68.832-1.214 2.415-4.162 5.454-9.287 5.581-9.435.176-.207-.271-.859-5.853-8.338-2.991-4.03-4.319-5.821-7.053-9.554a69.46 69.46 0 00-1.52-2.044c-.048-.059-.512.578-1.007 1.422zM56.938 36.094c-.48.874-.944 1.645-1.008 1.733-.336.415-2.511 4.192-2.511 4.355 0 .237 3.487 4.917 3.678 4.917.064 0 .272-.118.464-.266.336-.252.336-.282.304-6.295l-.048-6.028-.88 1.584z"/><path d="M13.995 37.072c-.24.504-1.872 3.747-3.615 7.198-1.743 3.466-3.167 6.295-3.135 6.31.032.03 1.616.874 2.831 1.525.304.163 1.647.874 2.959 1.6 1.327.71 2.703 1.451 3.07 1.644l.672.355.224-.34c.192-.282 2.367-3.984 5.214-8.872l.56-.978-.544-.651c-.608-.726-4.814-5.495-4.958-5.614a89.25 89.25 0 01-1.327-1.525c-.704-.785-1.312-1.466-1.376-1.496-.064-.045-.32.34-.575.844z"/><path d="M50.108 47.647c-1.423 2.43-2.559 4.429-2.527 4.458.032.045.8-.325 1.712-.814 4.286-2.296 6.461-3.48 6.589-3.6.096-.088-.448-.962-1.423-2.295-.864-1.185-1.616-2.148-1.664-2.148-.048 0-1.263 1.985-2.687 4.4zM23.063 46.98c-.4.756-1.184 2.089-3.23 5.525-2.208 3.718-2.16 3.614-1.984 3.762.08.074.832.489 1.663.948.832.444 2.335 1.244 3.327 1.792.992.534 2.111 1.14 2.479 1.333.368.193 1.231.652 1.92 1.037.687.37 1.439.681 1.678.681.24 0 1.008-.31 1.712-.681.703-.37 1.6-.844 1.967-1.052 1.615-.844 2.16-1.155 2.175-1.244.016-.059-.24-.385-.576-.74-.32-.356-2.143-2.414-4.046-4.577-1.92-2.162-4.174-4.71-5.022-5.658-.848-.962-1.567-1.747-1.631-1.747-.048 0-.24.281-.432.622zM86.93 37.883v.646h-4.22l-.925-2.325h-6.2l-.925 2.325h-4.22v-.646l5.856-13.475h4.779l5.855 13.475zm-6.587-5.252l-1.658-4.112-1.657 4.112h3.315zm21.086-8.223v3.874h-8.761v1.637h8.33v3.874h-8.33v4.736H88.34V24.408h13.088zm26.867 0v3.874h-8.762v1.637h8.331v3.874h-8.331v4.736h-4.327V24.408h13.089zm6.395 0v10.246h8.762v3.875h-13.089V24.408h4.327zm23.541 0v3.702h-8.762v1.529h8.331v3.638h-8.331v1.55h8.762v3.702h-13.089V24.408h13.089zm18.075.645l-5.253 6.415 5.253 6.415v.646h-4.994l-3.186-4.004-3.165 4.004h-4.994v-.646l5.252-6.415-5.252-6.415v-.645h4.994l3.165 4.004 3.186-4.004h4.994v.645z"/><path d="M109.547 28.648c0 1.579-.732 2.519-2.196 2.82 1.464.302 2.196 1.242 2.196 2.82v1.335c0 .474.294.71.882.71h2.713v3.725h-3.488c-.818 0-1.557-.173-2.217-.517a3.836 3.836 0 01-1.528-1.378 3.879 3.879 0 01-.538-2.023v-2.088a.657.657 0 00-.237-.538c-.158-.13-.373-.194-.646-.194h-1.485v-3.703h1.485c.273 0 .488-.065.646-.194a.657.657 0 00.237-.538v-2.088c0-.746.179-1.414.538-2.002a3.785 3.785 0 011.528-1.4c.66-.344 1.399-.516 2.217-.516h3.488v3.703h-2.713c-.287 0-.509.064-.667.194-.143.129-.215.308-.215.538v1.334zm78.241.97v3.702h-1.486c-.272 0-.487.064-.645.194a.657.657 0 00-.237.538v2.088c0 .746-.187 1.42-.56 2.023-.359.589-.868 1.048-1.528 1.378-.646.344-1.378.517-2.196.517h-3.487v-3.703h2.712c.287 0 .502-.065.646-.194a.657.657 0 00.237-.538v-1.335c0-1.578.732-2.518 2.195-2.82-1.463-.301-2.195-1.241-2.195-2.82v-1.334c0-.474-.295-.71-.883-.71h-2.712v-3.725h3.487c.818 0 1.55.172 2.196.517.66.33 1.169.796 1.528 1.399.373.588.56 1.256.56 2.002v2.088c0 .23.079.41.237.538.158.13.373.194.645.194h1.486z"/></symbol><symbol viewBox="0 0 1440 912" id="offer_bg" xmlns="http://www.w3.org/2000/svg"><path d="M-1184.51 37.109h3708.55M-1184.51 77.916h3708.55M-1184.51 118.724h3708.55M-1184.51 159.531h3708.55M-1184.51 200.339h3708.55M-1184.51 241.146h3708.55M-1184.51 281.954h3708.55M-1184.51 322.761h3708.55M-1184.51 363.569h3708.55M-1184.51 404.376h3708.55M-1184.51 445.184h3708.55M-1184.51 485.991h3708.55M-1184.51 526.799h3708.55M-1184.51 567.606h3708.55M-1184.51 608.414h3708.55M-1184.51 649.221h3708.55M-1184.51 690.029h3708.55M-1184.51 730.836h3708.55M-1184.51 771.644h3708.55M-1184.51 812.451h3708.55M-1184.51 853.259h3708.55M1404.3-2796.54V912M1363.49-2796.54V912M1322.69-2796.54V912M1281.88-2796.54V912M1241.07-2796.54V912M1200.26-2796.54V912M1159.46-2796.54V912M1118.65-2796.54V912M1077.84-2796.54V912M1037.03-2796.54V912M996.226-2796.54V912M955.418-2796.54V912M914.611-2796.54V912M873.803-2796.54V912M832.996-2796.54L832.995 912M792.188-2796.54V912M751.381-2796.54V912M710.573-2796.54V912M669.766-2796.54L669.765 912M628.958-2796.54V912M588.151-2796.54V912M547.343-2796.54V912M506.536-2796.54L506.535 912M465.729-2796.54L465.728 912M424.921-2796.54V912M384.113-2796.54V912M343.306-2796.54V912M302.498-2796.54V912M261.691-2796.54V912M220.883-2796.54V912M180.076-2796.54V912M139.268-2796.54V912M98.46-2796.54V912M57.653-2796.54V912M16.846-2796.54V912" stroke="#F4F4F4"/></symbol><symbol viewBox="0 0 32 33" id="star" xmlns="http://www.w3.org/2000/svg"><path d="M31.435 18.519c.082 1.875-.173 3.595-.921 5.314-.749 1.72-1.84 3.126-3.262 4.533-1.427 1.25-3.027 2.345-4.976 2.97-.81.312-1.784.625-2.765.781l.487-.156s3.535-2.032 4.168-6.409c.159-3.907-3.374-5.627-3.374-5.627s-1.717 2.189-4.187 2.189c-3.953 0-3.566-6.253-3.566-6.253s-5.8 2.97-5.527 9.223c.17 3.907 4.58 6.877 4.58 6.877-.5-.156-1.165-.313-1.666-.469-2.004-.625-3.698-1.72-5.235-2.97-1.537-1.25-2.757-2.813-3.656-4.533C.637 22.27.233 20.551.151 18.675-.114 12.579 7.203 6.639 7.203 6.639s.863 4.69 4.65 4.69c6.917 0 3.991-10.473 3.991-10.473s6.408 3.439 8.628 12.817c3.438-.469 2.925-4.689 2.925-4.689s3.82 4.533 4.038 9.535z" fill="white"/></symbol><symbol viewBox="0 0 36 36" id="transactions-icon1" xmlns="http://www.w3.org/2000/svg"><path d="M15.165 27.224H9.48c-.615 0-1.125-.51-1.125-1.125v-7.68a2.842 2.842 0 012.835-2.835h3.976c.614 0 1.125.51 1.125 1.125v9.375c0 .63-.51 1.14-1.126 1.14zm-4.56-2.25h3.435V17.85h-2.85a.586.586 0 00-.585.585v6.54z"/><path d="M20.834 27.224H15.15c-.615 0-1.125-.51-1.125-1.125V11.61a2.842 2.842 0 012.835-2.835h2.28a2.842 2.842 0 012.835 2.835V26.1a1.146 1.146 0 01-1.14 1.125zm-4.545-2.25h3.435V11.61a.586.586 0 00-.585-.585h-2.28a.586.586 0 00-.585.585v13.365h.015z"/><path d="M26.52 27.224h-5.684c-.615 0-1.125-.51-1.125-1.125v-6.825c0-.615.51-1.125 1.125-1.125h3.975a2.842 2.842 0 012.835 2.835V26.1c0 .616-.495 1.125-1.125 1.125zm-4.56-2.25h3.436v-3.99a.586.586 0 00-.585-.585h-2.85v4.575z"/><path d="M22.5 34.125h-9c-8.145 0-11.625-3.48-11.625-11.625v-9c0-8.145 3.48-11.625 11.625-11.625h9c8.145 0 11.625 3.48 11.625 11.625v9c0 8.145-3.48 11.625-11.625 11.625zm-9-30c-6.915 0-9.375 2.46-9.375 9.375v9c0 6.915 2.46 9.375 9.375 9.375h9c6.915 0 9.375-2.46 9.375-9.375v-9c0-6.915-2.46-9.375-9.375-9.375h-9z"/></symbol><symbol viewBox="0 0 36 36" id="transactions-icon2" xmlns="http://www.w3.org/2000/svg"><path d="M20.25 13.875H3c-.615 0-1.125-.51-1.125-1.125s.51-1.125 1.125-1.125h17.25c.615 0 1.125.51 1.125 1.125s-.51 1.125-1.125 1.125zM12 25.875H9c-.615 0-1.125-.51-1.125-1.125s.51-1.125 1.125-1.125h3c.615 0 1.125.51 1.125 1.125s-.51 1.125-1.125 1.125zM21.75 25.875h-6c-.615 0-1.125-.51-1.125-1.125s.51-1.125 1.125-1.125h6c.615 0 1.125.51 1.125 1.125s-.51 1.125-1.125 1.125z"/><path d="M26.34 31.875H9.66c-5.97 0-7.785-1.8-7.785-7.71v-12.33c0-5.91 1.815-7.71 7.785-7.71h10.59c.615 0 1.125.51 1.125 1.125s-.51 1.125-1.125 1.125H9.66c-4.71 0-5.535.81-5.535 5.46V24.15c0 4.65.825 5.46 5.535 5.46h16.665c4.71 0 5.535-.81 5.535-5.46v-7.62c0-.615.51-1.125 1.125-1.125s1.125.51 1.125 1.125v7.62c.015 5.925-1.8 7.725-7.77 7.725z"/><path d="M27 12.376c-.286 0-.57-.105-.796-.33l-2.25-2.25a1.132 1.132 0 010-1.59 1.132 1.132 0 011.59 0L27 9.66l5.205-5.205a1.132 1.132 0 011.59 0 1.132 1.132 0 010 1.59l-6 6c-.225.225-.51.33-.795.33z"/></symbol></svg>